<?xml version="1.0" standalone="no"?>
<!DOCTYPE svg PUBLIC "-//W3C//DTD SVG 20010904//EN"
 "http://www.w3.org/TR/2001/REC-SVG-20010904/DTD/svg10.dtd">
<svg version="1.0" xmlns="http://www.w3.org/2000/svg"
 width="246.388297pt" height="276.875862pt" viewBox="0 0 246.388297 276.875862"
 preserveAspectRatio="xMidYMid meet">
<metadata>
Created by potrace 1.12, written by Peter Selinger 2001-2015
</metadata>
<g transform="translate(-114.198436,400.875862) scale(0.100000,-0.100000)"
fill="#1a59da" stroke="none">
<path d="M2235 3919 c-143 -98 -380 -221 -520 -269 -114 -40 -311 -79 -439
-88 l-100 -7 -8 -30 c-16 -62 -30 -304 -25 -430 8 -176 32 -334 73 -493 35
-135 45 -164 92 -282 149 -368 402 -677 731 -892 103 -66 336 -188 362 -188
16 0 269 127 290 146 8 8 19 14 23 14 14 0 158 103 224 159 184 159 325 336
436 545 74 141 154 372 181 528 8 41 20 36 -125 58 -181 28 -434 -7 -650 -89
-208 -79 -432 -251 -534 -408 -48 -75 -89 -153 -81 -153 3 0 40 26 82 57 196
145 525 260 798 279 78 6 92 4 104 -10 13 -15 8 -30 -43 -129 -92 -182 -222
-340 -387 -473 -74 -60 -268 -181 -306 -190 -25 -7 -136 49 -241 122 -35 24
-65 44 -68 44 -14 0 -195 178 -220 215 -11 17 -11 28 2 65 53 158 172 338 324
491 312 312 806 527 1300 565 47 3 89 8 93 11 12 7 -18 439 -32 460 -3 5 -64
14 -136 21 -158 14 -283 40 -424 88 -118 40 -310 133 -414 200 -37 24 -70 44
-73 44 -3 0 -37 25 -76 55 -38 30 -73 54 -77 54 -3 -1 -64 -42 -136 -90z m257
-408 c215 -130 441 -217 693 -266 80 -15 105 -31 105 -66 0 -9 -6 -21 -12 -26
-7 -6 -89 -13 -183 -16 -482 -17 -879 -173 -1168 -460 -57 -56 -113 -115 -125
-130 -41 -51 -90 -121 -115 -167 -13 -24 -29 -46 -35 -48 -25 -8 -90 156 -138
351 -26 106 -57 392 -52 484 l3 58 80 17 c143 31 179 41 270 70 157 50 360
147 490 235 27 18 55 33 61 33 7 0 63 -31 126 -69z"/>
</g>
</svg>
